<svg
          width="100%"
          height="8vw"
          viewBox="0 0 261 156"
          fill="none"
          xmlns="http://www.w3.org/2000/svg"
          preserveAspectRatio="xMinYMin none"
        >
          <path
            d="M101.318 155.051H150.227C150.227 155.051 143.817 143.932 133.529 118.997C122.229 91.3671 114.977 71.8232 132.18 45.2042C143.987 27.0087 152.252 -0.116213 140.277 0.0520486H101.655C107.221 16.9003 118.522 34.7581 110.931 53.1218C109.92 55.6492 103.845 68.7876 102.835 71.3173C97.9446 84.4579 99.6303 92.0401 100.305 115.121C101.487 148.481 101.318 155.051 101.318 155.051Z"
            fill="#F6C859"
          />
          <path
            d="M171.314 71.8232L138.762 71.9914C138.762 71.9914 139.437 145.279 185.481 153.535C231.526 161.79 259.863 124.388 248.9 87.9972C242.322 66.2636 217.697 63.2314 216.516 61.7147C215.334 60.198 202.854 41.4978 198.806 40.9918C194.759 40.4859 156.134 46.7197 168.447 24.313C175.025 12.1831 207.24 8.64727 224.95 45.3724L260.706 46.3832C260.706 46.3832 242.155 0.894478 201.168 0.554474C189.025 0.386212 180.085 2.23942 168.784 9.31569C145.339 23.973 144.328 68.6192 185.481 61.2064C185.481 61.2064 195.264 78.5595 198.637 80.5856C202.009 82.6117 223.093 86.8194 223.093 105.351C223.093 121.694 207.239 127.253 199.649 126.411C188.35 125.062 173.675 118.492 171.314 71.8232Z"
            fill="#F6C859"
          />
          <path
            d="M78.0426 0.726119L4.84035 0.557861C4.84035 0.557861 -8.48454 73.6774 9.22587 115.122C26.2613 155.051 52.235 158.589 86.1316 151.681L86.4686 99.6223C86.4686 99.6223 82.9265 110.573 74.1543 117.481C64.3715 125.4 47.5057 124.894 38.7347 116.639C23.723 102.482 24.061 82.7752 24.061 76.0354C24.061 75.193 24.736 74.6882 25.2413 75.193C29.4583 79.9101 40.5899 92.3777 63.0227 81.9316C64.203 81.4256 76.5161 73.1703 86.6358 59.0189H55.6087C55.6087 59.0189 39.4166 70.6441 24.2422 55.4808C23.2122 54.1811 22.6216 52.5883 22.5554 50.9319C22.0489 44.3616 21.5436 26.8392 39.2528 21.6173C39.796 21.4246 40.3641 21.3113 40.9396 21.2807C45.3251 20.4383 65.0592 18.4168 70.625 34.9273L78.0426 0.726119Z"
            fill="#F6C859"
          />
        </svg>