  <svg
    width="100%"
    height="auto"
    viewBox="0 0 612 136"
    fill="none"
    xmlns="http://www.w3.org/2000/svg"
  >
    <path
      d="M473 134.6H515.1C515.1 134.6 509.6 125 500.7 103.5C491 79.7001 484.7 62.8001 499.5 39.9001C509.7 24.2001 516.8 0.800053 506.5 1.00005H473.3C478.1 15.5001 487.8 30.9001 481.3 46.7001C480.4 48.9001 475.2 60.2001 474.3 62.4001C470.1 73.7001 471.5 80.3001 472.1 100.1C473.1 128.9 473 134.6 473 134.6Z"
      fill="#F6C859"
      stroke=""
      strokeMiterlimit="10"
    />
    <path
      d="M300.1 21.5001L277.9 41.4001L301.7 35.0001C301.7 35.0001 277.9 65.8001 297.2 106.3C316.5 146.8 359.6 132.1 359.6 132.1V91.2001C359.6 91.2001 326.8 134 308.2 79.9001C307.2 77.0001 302.5 49.8001 317.6 32.6001L356.8 30.3001V1.70007L300.1 21.5001Z"
      fill="#F6C859"
      stroke=""
      strokeMiterlimit="10"
    />
    <path
      d="M146 7.00004C134.2 13.1 126.5 24.4 120.6 33.9C109 52.3 105.1 73 106.5 93.3C107.7 108.3 112.6 126.7 132.8 132.8C145 136.6 158.5 133.8 168.5 127.7C180.3 120.4 184.8 110.1 185.3 98.8C185.7 90.4 185 82.4 187.6 74C190.1 65.9 194.1 58.2 197 50.2C201.9 36.8 205.7 15.4 186.3 5.30004C182.6 3.50004 164.5 -2.59997 146 7.00004ZM183.1 43.8C179.8 54.4 174.2 57.3 170.8 67.6C168.8 73.6 169.3 89.8 166 97.5C161.6 107.1 153.5 110.3 145.7 109.6C139 108.9 128.3 100.9 129.3 76.8C129.9 63 135.1 41.4 149.9 23.8C155.7 16.8 163 9.60004 173.6 12.3C179.4 13.8 185.2 20.7 185.5 28.7C185.4 36.1 184.7 38.9 183.1 43.8Z"
      fill="#F6C859"
      stroke=""
      strokeMiterlimit="10"
    />
    <path
      d="M209.5 24.7001C213 -22.7999 290.7 18.0001 290.7 18.0001C279.2 28.2001 275.2 31.4001 265.1 39.6001C265.1 39.6001 216 -20.3999 223.9 44.8001C225.8 60.9001 251.8 51.8001 253.4 51.9001C253.7 51.9001 265.3 70.3001 268.4 73.8001C269.1 74.7001 257.9 76.1001 256.4 76.1001C243.9 75.7001 234 70.0001 227.5 67.5001C223.4 65.9001 224.5 75.2001 224.6 76.6001C225 83.6001 230 109.7 259.4 134.2H207.9C208 127.2 209.5 24.7001 209.5 24.7001Z"
      fill="#F6C859"
      stroke=""
      strokeMiterlimit="10"
    />
    <path
      d="M533.3 62.8L505.3 62.9C505.3 62.9 505.9 126.1 545.5 133.2C585.1 140.3 609.5 108.1 600.1 76.7C594.4 58 573.2 55.4 572.2 54.1C571.2 52.8 560.4 36.7 557 36.2C553.5 35.8 520.3 41.1 530.9 21.8C536.6 11.3 564.3 8.3 579.5 39.9L610.3 40.8C610.3 40.8 594.3 1.6 559.1 1.3C548.6 1.2 541 2.8 531.2 8.9C511 21.5 510.1 60 545.6 53.6C545.6 53.6 554 68.6 556.9 70.3C559.8 72 578 75.7 578 91.6C578 105.7 564.4 110.5 557.8 109.7C547.9 108.7 535.3 103.1 533.3 62.8Z"
      fill="#F6C859"
      stroke=""
      strokeMiterlimit="10"
    />
    <path
      d="M29 63.1L1 63.3C1 63.3 1.6 126.5 41.2 133.6C80.8 140.7 105.2 108.5 95.8 77.1C90.1 58.4 68.9 55.8 67.9 54.5C66.9 53.2 56.2 37 52.7 36.6C49.2 36.2 16 41.5 26.6 22.2C32.3 11.7 60 8.70002 75.2 40.3L106 41.2C106 41.2 90 2.00002 54.8 1.70002C44.3 1.60002 36.6 3.20002 26.8 9.30002C6.7 21.9 5.8 60.4 41.2 54C41.2 54 49.6 69 52.5 70.7C55.4 72.4 73.6 76.1 73.6 92C73.6 106.1 60 110.9 53.4 110.1C43.7 109 30.9 103.4 29 63.1Z"
      fill="#F6C859"
      stroke=""
      strokeMiterlimit="10"
    />
    <path
      d="M453 1.6L390 1.5C390 1.5 378.5 64.5 393.8 100.2C408.5 134.6 430.8 137.7 460 131.7L460.3 86.8C460.3 86.8 457.3 96.2 449.7 102.2C441.3 109 426.8 108.6 419.2 101.5C406.3 89.3 406.6 72.3 406.6 66.5C406.6 65.8 407.2 65.3 407.6 65.8C411.2 69.9 420.8 80.6 440.1 71.6C441.1 71.2 451.7 64 460.4 51.9H433.7C433.7 51.9 419.8 61.9 406.7 48.9C405.8 47.8 405.3 46.4 405.2 45C404.8 39.3 404.3 24.2 419.6 19.7C420.1 19.5 420.6 19.4 421.1 19.4C424.9 18.7 441.9 16.9 446.7 31.2L453 1.6Z"
      fill="#F6C859"
      stroke=""
      strokeMiterlimit="10"
    />
  </svg>