<svg
          width="100%"
          height="8vw"
          viewBox="0 0 417 156"
          fill="none"
          xmlns="http://www.w3.org/2000/svg"
          preserveAspectRatio="xMinYMin none"
        >
          <path
            d="M346.952 23.6192L321.184 46.7992L348.805 39.3549C348.805 39.3549 321.184 75.2232 343.584 122.428C365.985 169.633 416.007 152.544 416.007 152.544V104.831C416.007 104.831 377.943 154.743 356.38 91.6337C355.201 88.2542 349.812 56.6114 367.327 36.4765L412.802 33.7694V0.609375L346.952 23.6192Z"
            fill="#F6C859"
          />
          <path
            d="M168.255 6.69939C154.613 13.808 145.686 27.0021 138.782 37.9995C125.307 59.4874 120.76 83.5123 122.444 107.199C123.791 124.626 129.521 146.114 152.93 153.219C167.082 157.618 182.743 154.403 194.362 147.297C208.005 138.837 213.226 126.825 213.9 113.627C214.406 103.814 213.564 94.5085 216.595 84.6951C219.458 75.2208 224.174 66.2535 227.542 56.9481C233.268 41.3826 237.648 16.3415 215.079 4.66819C210.698 2.63932 189.646 -4.46699 168.255 6.69939ZM211.201 49.674C207.327 62.0267 200.927 65.4062 196.884 77.421C194.526 84.3583 195.2 103.307 191.326 112.274C186.273 123.441 176.842 127.163 167.747 126.317C159.999 125.471 147.537 116.165 148.715 88.0793C149.389 72.0056 155.452 46.7968 172.631 26.3239C179.367 18.2026 187.789 9.74329 200.084 12.9573C206.82 14.6494 213.558 22.7707 213.894 32.0761C213.899 40.7078 213.057 43.9218 211.201 49.674Z"
            fill="#F6C859"
          />
          <path
            d="M241.857 27.3413C245.898 -27.9848 336.006 19.558 336.006 19.558C322.7 31.4014 317.985 35.1235 306.363 44.768C306.363 44.768 249.435 -25.1087 258.53 50.8593C260.719 69.64 290.868 58.9806 292.721 59.1496C293.057 59.1496 306.531 80.6375 310.068 84.6975C310.91 85.7126 297.942 87.4046 296.09 87.4046C281.605 86.8965 270.152 80.296 262.573 77.4223C257.857 75.5577 259.036 86.3896 259.209 88.0817C259.715 96.203 265.441 126.655 299.631 155.251H239.836C240.172 146.791 241.857 27.3413 241.857 27.3413Z"
            fill="#F6C859"
          />
          <path
            d="M32.506 72.1767L0 72.3468C0 72.3468 0.674001 145.946 46.653 154.236C92.6319 162.526 120.928 124.966 109.981 88.4205C103.412 66.5947 78.8226 63.5496 77.6428 62.0265C76.463 60.5034 64.0005 41.7238 59.9589 41.2157C55.9172 40.7076 17.3475 46.9678 29.643 24.4661C36.2113 12.2847 68.3809 8.73386 86.0648 45.6149L121.77 46.6299C121.77 46.6299 103.245 0.94699 62.3172 0.605543C50.1911 0.436567 41.2645 2.29763 29.9794 9.40394C6.56826 24.1235 5.55785 68.9591 46.653 61.5149C46.653 61.5149 56.4218 78.9416 59.7906 80.9763C63.1594 83.011 84.2122 87.2365 84.2122 105.847C84.2122 122.259 68.3809 127.842 60.8011 126.996C49.5172 125.642 34.6951 119.044 32.506 72.1767Z"
            fill="#F6C859"
          />
        </svg>